<svg width="125" height="19" viewBox="0 0 500 76" fill="none" xmlns="http://www.w3.org/2000/svg" class=""><g clip-path="url(#clip0_2879_347)"><path d="M110.239 22.922v11.423h18.725v9.085h-18.725V62.02h-9.503V13.836h28.775v9.086h-19.272zM171.939 27.605V62.02h-8.88v-4.061c-2.482 3.097-6.194 5.025-11.219 5.025-9.153 0-16.728-7.917-16.728-18.171s7.575-18.17 16.728-18.17c5.025 0 8.744 1.927 11.219 5.024v-4.06h8.88zm-8.88 17.207c0-5.784-4.061-9.708-9.564-9.708s-9.503 3.924-9.503 9.708c0 5.784 4.061 9.708 9.503 9.708s9.564-3.924 9.564-9.708zM224.607 36.137v14.315c0 3.719 2.687 3.787 7.78 3.514v8.053c-12.455 1.374-16.66-2.27-16.66-11.567V36.137h-5.989v-8.532h5.989v-9.64h8.88v9.64h7.78v8.532h-7.78zM322.755 27.605V62.02h-8.88v-4.061c-2.482 3.097-6.194 5.025-11.219 5.025-9.153 0-16.728-7.917-16.728-18.171s7.575-18.17 16.728-18.17c5.025 0 8.744 1.927 11.219 5.024v-4.06h8.88zm-8.88 17.207c0-5.784-4.061-9.708-9.564-9.708s-9.503 3.924-9.503 9.708c0 5.784 4.061 9.708 9.503 9.708s9.564-3.924 9.564-9.708zM382.133 40.82v21.199h-8.881V41.442c0-4.06-2.064-6.543-5.783-6.543-3.924 0-6.406 2.619-6.406 7.78v19.34h-8.881V41.442c0-4.06-2.064-6.543-5.783-6.543-3.72 0-6.467 2.619-6.467 7.78v19.34h-8.881V27.605h8.881v3.643c1.928-2.892 5.161-4.607 9.563-4.607 4.403 0 7.439 1.791 9.359 4.957 2.133-3.097 5.579-4.957 10.254-4.957 7.848 0 13.01 5.579 13.01 14.178h.015zM427.256 44.812c0 10.254-7.567 18.17-16.796 18.17-5.025 0-8.676-1.859-11.15-5.024v17.83h-8.881V27.604h8.881v4.06c2.482-3.164 6.125-5.024 11.15-5.024 9.222 0 16.796 7.917 16.796 18.17zm-8.88 0c0-5.784-4.061-9.708-9.564-9.708-5.502 0-9.502 3.924-9.502 9.708 0 5.784 4.06 9.708 9.502 9.708 5.443 0 9.564-3.924 9.564-9.708zM465.556 27.605V62.02h-8.881v-3.856c-2.064 3.097-5.639 4.82-10.254 4.82-7.294 0-13.009-5.093-13.009-14.247v-21.13h8.88v20.03c0 4.683 2.824 7.089 6.816 7.089 4.334 0 7.567-2.543 7.567-8.531v-18.58h8.881v-.009zM188.63 37.374c0-1.86 1.791-2.824 3.992-2.824a6.14 6.14 0 012.953.729c1.268.63 2.307 1.586 3.059 2.512l7.074-3.856c-2.687-4.751-7.499-7.294-13.078-7.294-7.089 0-13.078 3.924-13.078 10.945 0 12.114 17.754 9.359 17.754 14.383 0 1.997-1.928 2.96-4.752 2.96-.387 0-.759-.022-1.123-.068a7.293 7.293 0 01-2.634-.804c-1.533-.775-2.71-1.966-3.598-3.257l-7.096 3.993c2.482 5.298 7.567 8.19 14.451 8.19 7.363 0 13.837-3.583 13.837-11.014 0-12.668-17.761-9.502-17.761-14.595zM482.239 37.374c0-1.86 1.792-2.824 3.993-2.824 1.108 0 2.095.266 2.952.729 1.268.63 2.308 1.586 3.059 2.512l7.074-3.856c-2.687-4.751-7.499-7.294-13.078-7.294-7.089 0-13.077 3.924-13.077 10.945 0 12.114 17.753 9.359 17.753 14.383 0 1.997-1.928 2.96-4.751 2.96-.388 0-.759-.022-1.124-.068a7.293 7.293 0 01-2.634-.804c-1.533-.775-2.709-1.966-3.597-3.257l-7.097 3.993c2.482 5.298 7.567 8.19 14.452 8.19 7.362 0 13.836-3.583 13.836-11.014 0-12.668-17.761-9.502-17.761-14.595zM275.332 49.814c-1.579 2.71-4.463 4.357-7.962 4.357h-.129c-.053 0-.099.008-.144.008-5.298 0-9.222-3.925-9.222-9.36 0-5.434 3.924-9.426 9.222-9.426.053 0 .106.008.159.008h.114c3.507 0 6.399 1.647 7.97 4.371l7.233-4.235c-2.823-5.305-8.675-8.88-15.415-8.88-10.46 0-18.171 7.916-18.171 18.17 0 10.255 7.711 18.171 18.171 18.171 6.747 0 12.599-3.582 15.559-8.948l-7.385-4.22v-.016z" fill="#fff"></path><path d="M75.461 37.722a.219.219 0 00.327-.19C75.575 16.805 58.702.069 37.928.069a37.617 37.617 0 00-18.58 4.88.22.22 0 000 .38L75.46 37.722zM5.328 19.347a.22.22 0 00-.38 0 37.617 37.617 0 00-4.88 18.58c0 20.775 16.737 37.64 37.458 37.86a.219.219 0 00.19-.326L5.327 19.347zM12.326 12.47l35.666 61.776a.22.22 0 00.25.099c12.616-3.568 22.543-13.495 26.11-26.11a.22.22 0 00-.098-.25L12.47 12.324c-.09-.052-.197.054-.144.145z" fill="#FC1C49"></path></g><defs><clipPath id="clip0_2879_347"><path fill="#fff" d="M0 0h500v75.901H0z"></path></clipPath></defs></svg>